
<svg width="335px" height="125px" viewBox="0 0 335 125" version="1.1" xmlns="http://www.w3.org/2000/svg" xmlns:xlink="http://www.w3.org/1999/xlink">
    <g id="页面1" stroke="none" stroke-width="1" fill="none" fill-rule="evenodd">
        <g id="桌面端HD" transform="translate(-205.000000, -371.000000)" fill="#FFFFFF">
            <g id="编组-4" transform="translate(205.000000, 367.000000)">
                <g id="编组-5">
                    <path d="M2.208,108.48 L7.224,108.48 C6.936,107.808 6.6,107.184 6.24,106.608 L8.904,106.176 C9.216,106.872 9.528,107.64 9.816,108.48 L14.28,108.48 C14.616,107.712 14.88,106.92 15.072,106.104 L17.76,106.464 C17.568,107.184 17.28,107.856 16.944,108.48 L21.792,108.48 L21.792,110.736 L13.272,110.736 L13.272,112.368 L20.52,112.368 L20.52,114.528 L13.272,114.528 L13.272,116.184 L22.584,116.184 L22.584,118.488 L1.416,118.488 L1.416,116.184 L10.728,116.184 L10.728,114.528 L3.552,114.528 L3.552,112.368 L10.728,112.368 L10.728,110.736 L2.208,110.736 L2.208,108.48 Z M10.896,118.896 L13.44,119.136 C13.368,119.544 13.296,119.952 13.2,120.336 L22.056,120.336 L22.056,122.688 L14.328,122.688 C15.96,124.416 18.96,125.616 23.304,126.24 L21.984,128.616 C16.92,127.632 13.584,125.856 11.976,123.288 C11.496,124.08 10.896,124.776 10.224,125.376 C8.64,126.768 5.832,127.872 1.848,128.688 L0.816,126.24 C4.224,125.64 6.672,124.8 8.16,123.696 C8.568,123.36 8.928,123.024 9.24,122.688 L1.968,122.688 L1.968,120.336 L10.56,120.336 C10.704,119.856 10.8,119.376 10.896,118.896 Z M47.264,107.04 L47.264,120.624 L44.864,120.624 L44.864,109.392 L39.056,109.392 L39.056,120.624 L36.656,120.624 L36.656,107.04 L47.264,107.04 Z M46.616,128.064 L44.192,128.064 C42.704,128.064 41.96,127.272 41.96,125.712 L41.96,122.136 C41.696,122.832 41.408,123.48 41.096,124.056 C39.92,126.048 38,127.584 35.312,128.664 L33.944,126.552 C36.56,125.424 38.336,124.032 39.272,122.376 C40.16,120.6 40.664,118.272 40.76,115.392 L40.76,110.88 L43.112,110.88 L43.112,115.392 C43.04,117.336 42.824,119.064 42.44,120.6 L44.312,120.6 L44.312,125.208 C44.312,125.64 44.504,125.88 44.912,125.88 L46.208,125.88 C46.472,125.88 46.664,125.736 46.808,125.472 C46.952,125.184 47.072,124.368 47.12,122.976 L49.328,123.672 C49.136,125.808 48.848,127.08 48.44,127.488 C48.032,127.872 47.432,128.064 46.616,128.064 Z M29,111.84 C30.128,113.232 31.184,114.624 32.192,116.016 C32.672,114.24 32.984,112.344 33.152,110.328 L27.488,110.328 L27.488,107.928 L35.48,107.928 L35.48,109.8 C35.336,113.04 34.832,115.968 33.968,118.584 C34.88,119.952 35.72,121.32 36.488,122.712 L34.712,124.488 C34.16,123.432 33.56,122.352 32.888,121.272 C31.736,123.72 30.248,125.856 28.424,127.68 L26.768,125.808 C28.712,123.84 30.224,121.512 31.28,118.8 C30.104,117.072 28.784,115.296 27.296,113.472 L29,111.84 Z M59.296,116.064 L56.464,116.064 L56.464,107.016 L71.656,107.016 L71.656,116.064 L62.224,116.064 C61.888,116.544 61.528,117.024 61.144,117.456 L73.48,117.456 C73.408,120.096 73.264,122.232 73.048,123.864 C72.808,125.472 72.424,126.6 71.92,127.248 C71.416,127.872 70.6,128.208 69.448,128.256 L66.016,128.256 L65.392,125.904 C66.376,125.976 67.336,126.024 68.248,126.024 C69.28,126.024 69.952,125.616 70.288,124.848 C70.624,124.032 70.84,122.304 70.936,119.664 L69.232,119.664 C67.168,124.08 63.904,127.032 59.488,128.472 L58.072,126.36 C61.96,125.16 64.816,122.928 66.64,119.664 L64.312,119.664 C62.632,122.208 59.968,124.224 56.32,125.688 L54.736,123.744 C57.808,122.664 60.088,121.296 61.576,119.664 L58.696,119.664 C57.544,120.48 56.272,121.224 54.856,121.896 L53.488,119.688 C56.056,118.728 58,117.504 59.296,116.064 Z M69.184,113.952 L69.184,112.512 L58.936,112.512 L58.936,113.952 L69.184,113.952 Z M58.936,110.544 L69.184,110.544 L69.184,109.128 L58.936,109.128 L58.936,110.544 Z M83.544,115.152 L83.544,118.608 L88.824,118.608 L88.824,115.152 L83.544,115.152 Z M83.424,120.912 C83.112,123.888 82.224,126.384 80.76,128.352 L78.84,126.624 C80.256,124.608 80.976,122.04 81.024,118.92 L81.024,107.04 L99.624,107.04 L99.624,125.16 C99.624,127.008 98.664,127.944 96.768,127.944 L94.008,127.944 L93.336,125.496 C94.296,125.592 95.16,125.64 95.976,125.64 C96.696,125.64 97.08,125.16 97.08,124.248 L97.08,120.912 L91.368,120.912 L91.368,127.68 L88.824,127.68 L88.824,120.912 L83.424,120.912 Z M97.08,118.608 L97.08,115.152 L91.368,115.152 L91.368,118.608 L97.08,118.608 Z M97.08,112.848 L97.08,109.488 L91.368,109.488 L91.368,112.848 L97.08,112.848 Z M88.824,109.488 L83.544,109.488 L83.544,112.848 L88.824,112.848 L88.824,109.488 Z M114.008,110.184 L114.008,127.008 L111.608,127.008 L111.608,125.808 L108.056,125.808 L108.056,127.704 L105.656,127.704 L105.656,110.184 L107.96,110.184 C108.392,108.912 108.704,107.592 108.896,106.224 L111.416,106.56 C111.152,107.856 110.792,109.08 110.36,110.184 L114.008,110.184 Z M108.056,123.504 L111.608,123.504 L111.608,118.968 L108.056,118.968 L108.056,123.504 Z M108.056,116.736 L111.608,116.736 L111.608,112.536 L108.056,112.536 L108.056,116.736 Z M118.376,116.016 C119.912,117.96 121.088,119.664 121.928,121.152 L119.912,122.544 C119.024,120.96 117.824,119.208 116.336,117.288 L118.376,116.016 Z M126.368,110.184 C126.368,118.584 126.248,123.768 126.008,125.736 C125.768,127.416 124.616,128.256 122.552,128.256 C122.072,128.256 121.208,128.208 119.96,128.112 L119.36,125.832 C120.416,125.904 121.352,125.952 122.144,125.952 C123.008,125.952 123.512,125.472 123.656,124.536 C123.8,123.384 123.872,119.424 123.92,112.632 L118.112,112.632 C117.464,114.072 116.696,115.368 115.808,116.52 L114.296,114.528 C115.88,112.272 116.936,109.488 117.512,106.2 L119.984,106.512 C119.744,107.808 119.432,109.032 119.072,110.184 L126.368,110.184 Z M134.56,109.968 C134.128,110.592 133.648,111.12 133.168,111.6 L136.288,111.6 C136.384,111.072 136.456,110.544 136.504,109.968 L134.56,109.968 Z M135.568,113.88 L131.272,113.88 L131.272,111.6 L132.328,111.6 L131.152,110.136 C132.256,109.176 133.216,107.808 134.056,106.032 L136.312,106.536 C136.144,106.968 135.976,107.4 135.784,107.784 L142.24,107.784 L142.24,109.968 L138.856,109.968 C138.808,110.544 138.76,111.072 138.688,111.6 L142.912,111.6 L142.912,113.88 L138.184,113.88 L138.112,114.096 C139.888,115.008 141.376,115.896 142.6,116.808 L141.184,118.224 L150.4,118.224 L150.4,128.568 L147.856,128.568 L147.856,127.68 L136.768,127.68 L136.768,128.568 L134.248,128.568 L134.248,118.8 C133.672,119.136 133.072,119.472 132.448,119.784 L130.768,117.744 C133.216,116.664 134.824,115.368 135.568,113.88 Z M136.768,125.472 L147.856,125.472 L147.856,124.08 L136.768,124.08 L136.768,125.472 Z M136.768,121.92 L147.856,121.92 L147.856,120.432 L136.768,120.432 L136.768,121.92 Z M135.088,118.224 L140.416,118.224 C139.552,117.456 138.52,116.712 137.296,115.944 C136.744,116.76 136,117.528 135.088,118.224 Z M143.56,107.856 L152.152,107.856 L152.152,117.048 L143.56,117.048 L143.56,107.856 Z M149.704,114.864 L149.704,110.064 L146.008,110.064 L146.008,114.864 L149.704,114.864 Z M160.728,120.48 L160.728,122.04 L165.432,122.04 L165.432,120.48 L160.728,120.48 Z M165.432,118.416 L165.432,116.76 L160.728,116.76 L160.728,118.416 L165.432,118.416 Z M160.728,124.104 L160.728,128.544 L158.304,128.544 L158.304,114.6 L167.856,114.6 L167.856,125.736 C167.856,127.488 167.04,128.376 165.408,128.376 L163.56,128.376 L162.936,126.048 L164.616,126.168 C165.144,126.168 165.432,125.832 165.432,125.208 L165.432,124.104 L160.728,124.104 Z M175.968,117 L172.056,117 C170.304,117 169.44,116.016 169.44,114.072 L169.44,106.392 L171.912,106.392 L171.912,109.128 C174.312,108.744 176.28,108.36 177.816,107.952 L178.632,110.16 C176.664,110.592 174.432,111 171.912,111.384 L171.912,113.568 C171.912,114.336 172.176,114.744 172.752,114.744 L175.488,114.744 C175.824,114.744 176.064,114.624 176.232,114.384 C176.4,114.12 176.52,113.352 176.568,112.056 L178.896,112.824 C178.704,114.84 178.392,116.064 177.96,116.448 C177.528,116.808 176.856,117 175.968,117 Z M171.912,122.568 L171.912,125.304 C171.912,125.712 172.176,125.928 172.728,125.928 L175.488,125.928 C175.824,125.928 176.088,125.808 176.232,125.568 C176.424,125.304 176.544,124.536 176.616,123.24 L178.896,123.96 C178.704,126 178.368,127.2 177.936,127.584 C177.504,127.944 176.856,128.136 175.968,128.136 L172.032,128.136 C170.304,128.136 169.44,127.368 169.44,125.856 L169.44,117.792 L171.912,117.792 L171.912,120.312 C174.12,120.072 176.088,119.688 177.816,119.16 L178.632,121.392 C176.544,121.944 174.312,122.328 171.912,122.568 Z M166.152,107.952 C167.544,109.848 168.6,111.48 169.368,112.872 L167.304,114.336 C167.064,113.856 166.8,113.352 166.536,112.848 C164.04,113.232 161.064,113.544 157.632,113.736 L156.96,111.648 C157.392,111.504 157.776,111.312 158.088,111.024 C159.528,109.344 160.584,107.736 161.304,106.248 L163.704,106.968 C162.744,108.84 161.664,110.352 160.44,111.528 C162.024,111.432 163.704,111.264 165.48,111.072 C165.096,110.448 164.664,109.824 164.232,109.176 L166.152,107.952 Z M183.008,107.04 L192.728,107.04 L192.728,109.344 L191.624,109.344 L191.624,121.632 C192.104,121.488 192.56,121.368 193.016,121.224 L193.016,123.648 C192.536,123.792 192.08,123.912 191.624,124.032 L191.624,128.52 L189.2,128.52 L189.2,124.68 C187.304,125.136 185.336,125.544 183.32,125.928 L182.72,123.528 L184.28,123.312 L184.28,109.344 L183.008,109.344 L183.008,107.04 Z M186.656,122.88 L189.2,122.304 L189.2,119.424 L186.656,119.424 L186.656,122.88 Z M186.656,117.168 L189.2,117.168 L189.2,114.432 L186.656,114.432 L186.656,117.168 Z M186.656,112.176 L189.2,112.176 L189.2,109.344 L186.656,109.344 L186.656,112.176 Z M193.568,107.472 L204.08,107.472 L204.08,119.376 L193.568,119.376 L193.568,107.472 Z M201.632,117.024 L201.632,109.848 L196.016,109.848 L196.016,117.024 L201.632,117.024 Z M195.704,120.384 L197.864,121.44 C196.856,124.224 195.68,126.624 194.288,128.64 L192.2,127.128 C193.568,125.256 194.744,123.024 195.704,120.384 Z M201.704,120.288 C203.312,122.88 204.56,125.16 205.424,127.08 L203.312,128.544 C202.448,126.432 201.248,124.104 199.76,121.512 L201.704,120.288 Z M216.136,106.44 L218.656,106.44 L218.656,125.232 L221.296,125.232 L221.296,106.44 L223.816,106.44 L223.816,125.232 L230.728,125.232 L230.728,127.68 L209.272,127.68 L209.272,125.232 L216.136,125.232 L216.136,106.44 Z M228.064,110.976 L230.272,111.6 C229.36,115.704 228.208,119.304 226.816,122.376 L224.56,121.584 C225.904,118.8 227.056,115.248 228.064,110.976 Z M211.84,110.904 C213.04,114.096 214.12,117.768 215.056,121.896 L212.776,122.448 C211.96,118.704 210.952,115.104 209.704,111.624 L211.84,110.904 Z M242.28,106.704 L244.44,108.024 C243.336,109.992 242.208,111.624 241.08,112.872 C239.976,114.12 238.392,115.488 236.28,117 L234.912,114.768 C236.4,113.952 237.84,112.8 239.184,111.288 C240.264,110.04 241.296,108.528 242.28,106.704 Z M242.928,117.984 L238.608,117.984 L238.608,115.56 L253.2,115.56 C253.104,118.68 252.96,121.176 252.72,123.096 C252.48,125.016 252.096,126.336 251.52,127.104 C250.968,127.824 250.08,128.232 248.856,128.304 L244.248,128.304 L243.576,125.832 C244.992,125.88 246.336,125.928 247.584,125.928 C248.76,125.928 249.528,125.424 249.912,124.464 C250.296,123.456 250.56,121.296 250.656,117.984 L245.472,117.984 C244.92,120.432 244.176,122.376 243.216,123.84 C241.968,125.592 240.12,127.176 237.672,128.568 L236.04,126.48 C238.2,125.328 239.832,124.056 240.936,122.664 C241.776,121.464 242.448,119.904 242.928,117.984 Z M249.792,106.416 C251.088,109.992 253.512,112.824 257.064,114.888 L255.36,116.88 C251.664,114.504 249.072,111.432 247.608,107.64 L249.792,106.416 Z M267.008,116.808 L267.008,128.448 L264.536,128.448 L264.536,117.456 C263.816,119.472 262.904,121.32 261.824,123.024 L260.744,120.264 C262.4,118.176 263.624,115.8 264.392,113.136 L261.32,113.136 L261.32,110.712 L264.536,110.712 L264.536,106.272 L267.008,106.272 L267.008,110.712 L269.984,110.712 L269.984,113.136 L267.008,113.136 L267.008,114.096 C268.112,115.2 269.192,116.376 270.272,117.648 L268.904,119.664 C268.184,118.512 267.536,117.552 267.008,116.808 Z M281.072,106.296 L282.296,108.552 C279.632,109.416 276.656,109.944 273.368,110.136 L273.368,113.688 L282.848,113.688 L282.848,116.112 L279.56,116.112 L279.56,128.448 L277.04,128.448 L277.04,116.112 L273.368,116.112 C273.176,121.224 271.928,125.304 269.648,128.352 L267.872,126.456 C269.792,123.936 270.824,120.432 270.968,115.944 L270.968,108 C274.76,107.904 278.12,107.352 281.072,106.296 Z M296.752,110.304 L288.784,110.304 L288.784,107.904 L307.288,107.904 L307.288,110.304 L299.296,110.304 L299.296,124.656 L308.752,124.656 L308.752,127.08 L287.272,127.08 L287.272,124.656 L296.752,124.656 L296.752,110.304 Z M331.584,107.016 L331.584,121.656 L334.752,121.656 L334.752,123.984 L329.304,123.984 C331.2,124.68 332.952,125.472 334.584,126.336 L333.192,128.52 C330.864,127.104 328.488,126 326.088,125.184 L326.904,123.984 L320.64,123.984 L321.816,125.016 C319.968,126.36 317.688,127.536 314.976,128.568 L313.44,126.552 C315.6,125.784 317.472,124.944 319.056,123.984 L313.248,123.984 L313.248,121.656 L316.416,121.656 L316.416,107.016 L331.584,107.016 Z M318.936,121.656 L329.064,121.656 L329.064,120.048 L318.936,120.048 L318.936,121.656 Z M318.936,118.08 L329.064,118.08 L329.064,116.448 L318.936,116.448 L318.936,118.08 Z M318.936,114.48 L329.064,114.48 L329.064,112.824 L318.936,112.824 L318.936,114.48 Z M318.936,110.88 L329.064,110.88 L329.064,109.368 L318.936,109.368 L318.936,110.88 Z" id="美观易用的智能职业分析工具" fill-opacity="0.87" fill-rule="nonzero"></path>
                    <path d="M15.736,76.936 C12.8986525,76.936 10.276012,76.2266738 7.868,74.808 C5.45998796,73.3893262 3.54667376,71.476012 2.128,69.068 C0.70932624,66.659988 2.13162821e-14,64.0373475 2.13162821e-14,61.2 L2.13162821e-14,37.12 L31.472,37.12 L31.472,61.2 C31.472,64.0373475 30.7626738,66.659988 29.344,69.068 C27.9253262,71.476012 26.012012,73.3893262 23.604,74.808 C21.195988,76.2266738 18.5733475,76.936 15.736,76.936 Z M57.456,77.104 C52.0426396,77.104 47.8706813,75.8253461 44.94,73.268 C42.0093187,70.7106539 40.5626665,66.8746922 40.6,61.76 L49.728,61.76 C49.6906665,63.8880106 50.3253268,65.5119944 51.632,66.632 C52.9386732,67.7520056 54.7679882,68.312 57.12,68.312 C59.061343,68.312 60.5919944,67.9946698 61.712,67.36 C62.8320056,66.7253302 63.392,65.7546732 63.392,64.448 C63.392,63.3653279 62.8226724,62.5813358 61.684,62.096 C60.5453276,61.6106642 59.4160056,61.2653344 58.296,61.06 C57.1759944,60.8546656 56.4853346,60.7333335 56.224,60.696 C53.349319,60.1359972 50.8666771,59.4546707 48.776,58.652 C46.6853229,57.8493293 44.9306738,56.6266749 43.512,54.984 C42.0933262,53.3413251 41.384,51.1760134 41.384,48.488 C41.384,45.7999866 42.0933262,43.5133428 43.512,41.628 C44.9306738,39.7426572 46.8253215,38.333338 49.196,37.4 C51.5666785,36.466662 54.151986,36 56.952,36 C60.3493503,36 63.2893209,36.6346603 65.772,37.904 C68.2546791,39.1733397 70.2053262,41.0959871 71.624,43.672 C72.3333369,44.9040062 72.7626659,46.0893276 72.912,47.228 C73.0613341,48.3666724 73.136,49.4773279 73.136,50.56 L64.008,50.56 C64.008,48.5439899 63.4666721,47.0600048 62.384,46.108 C61.3013279,45.1559952 59.6213447,44.68 57.344,44.68 C55.5146575,44.68 54.096005,44.9973302 53.088,45.632 C52.079995,46.2666698 51.576,47.1253279 51.576,48.208 C51.576,49.4026726 52.2479933,50.2799972 53.592,50.84 C54.9360067,51.4000028 56.6346564,51.9039978 58.688,52.352 C62.0480168,53.0240034 64.6706572,53.6679969 66.556,54.284 C68.4413428,54.9000031 70.0746598,55.9919922 71.456,57.56 C72.8373402,59.1280078 73.528,61.3306525 73.528,64.168 C73.528,66.8560134 72.7813408,69.170657 71.288,71.112 C69.7946592,73.053343 67.8253456,74.5373282 65.38,75.564 C62.9346544,76.5906718 60.2933475,77.104 57.456,77.104 Z M114.688,61.368 C114.725334,66.2586911 113.325348,70.0759863 110.488,72.82 C107.650652,75.5640137 103.749358,76.936 98.784,76.936 C95.8346519,76.936 93.1186791,76.2640067 90.636,74.92 C88.1533209,73.5759933 86.1840073,71.6720123 84.728,69.208 C83.2719927,66.7439877 82.544,63.9066827 82.544,60.696 L82.544,52.52 C82.544,49.3466508 83.243993,46.5280123 84.644,44.064 C86.044,41.5999877 87.9666544,39.6866735 90.412,38.324 C92.8573456,36.9613265 95.5919849,36.28 98.616,36.28 C103.581358,36.28 107.473319,37.6333198 110.292,40.34 C113.110681,43.0466802 114.538666,46.8639754 114.576,51.792 L104.496,51.792 C104.458666,49.8879905 103.945338,48.4133386 102.956,47.368 C101.966662,46.3226614 100.52001,45.8 98.616,45.8 C96.8986581,45.8 95.4800056,46.3413279 94.36,47.424 C93.2399944,48.5066721 92.68,50.0373234 92.68,52.016 L92.68,61.144 C92.68,63.1226766 93.2679941,64.6626612 94.444,65.764 C95.6200059,66.8653388 97.0666581,67.416 98.784,67.416 C102.70402,67.416 104.664,65.4000202 104.664,61.368 L114.688,61.368 Z M139.719752,36.2881832 L157.719752,76.2881832 L121.719752,76.2881832 L139.719752,36.2881832 Z" id="形状结合" fill-opacity="0.87"></path>
                    <path d="M6.822,4.24 L8.478,4.24 L2.196,20.8 L0.522,20.8 L6.822,4.24 Z M11.94,6.148 L13.956,6.148 L13.722,10.72 L12.21,10.72 L11.94,6.148 Z M21.954,9.442 C23.322,9.442 24.402,9.856 25.212,10.72 C26.076,11.602 26.508,12.808 26.508,14.356 C26.508,15.724 26.112,16.876 25.32,17.794 C24.492,18.766 23.394,19.252 22.026,19.252 C20.496,19.252 19.344,18.73 18.552,17.704 C17.814,16.768 17.436,15.472 17.436,13.816 L24.492,13.816 C24.42,12.898 24.168,12.196 23.754,11.728 C23.322,11.242 22.728,11.008 21.972,11.008 C21.288,11.008 20.748,11.152 20.352,11.476 C20.028,11.728 19.74,12.124 19.506,12.682 L17.598,12.682 C17.796,11.8 18.228,11.08 18.876,10.504 C19.686,9.784 20.712,9.442 21.954,9.442 Z M19.434,15.256 C19.596,16.876 20.442,17.686 21.99,17.686 C22.692,17.686 23.25,17.47 23.682,17.038 C24.078,16.624 24.33,16.03 24.456,15.256 L19.434,15.256 Z M33.102,9.442 C35.514,9.442 36.846,10.414 37.062,12.376 L35.208,12.376 C35.064,11.872 34.848,11.53 34.542,11.332 C34.218,11.116 33.714,11.008 33.066,11.008 C32.49,11.008 32.058,11.08 31.77,11.26 C31.428,11.44 31.266,11.728 31.266,12.088 C31.266,12.412 31.518,12.682 32.022,12.916 C32.346,13.06 32.958,13.24 33.894,13.474 C34.956,13.726 35.748,14.032 36.252,14.356 C36.99,14.824 37.368,15.472 37.368,16.3 C37.368,18.262 35.982,19.252 33.228,19.252 C30.672,19.252 29.304,18.154 29.088,15.994 L30.96,15.994 C31.068,16.624 31.302,17.074 31.626,17.326 C31.95,17.56 32.454,17.686 33.174,17.686 C34.65,17.686 35.406,17.254 35.406,16.426 C35.406,15.976 35.118,15.616 34.578,15.364 C34.29,15.22 33.66,15.04 32.706,14.824 C31.608,14.572 30.834,14.302 30.402,14.014 C29.682,13.564 29.322,12.934 29.322,12.142 C29.322,11.296 29.664,10.63 30.366,10.162 C31.068,9.676 31.986,9.442 33.102,9.442 Z M40.488,5.896 L42.396,5.896 L42.396,13.528 L46.428,9.694 L48.894,9.694 L44.772,13.528 L49.254,19 L46.806,19 L43.458,14.752 L42.396,15.742 L42.396,19 L40.488,19 L40.488,5.896 Z M56.028,9.442 C57.396,9.442 58.404,9.784 59.052,10.468 C59.61,11.062 59.898,11.926 59.898,13.06 L59.898,19 L58.134,19 L58.134,17.686 C57.774,18.154 57.324,18.532 56.784,18.802 C56.172,19.09 55.452,19.252 54.624,19.252 C53.652,19.252 52.896,19 52.356,18.514 C51.762,18.028 51.474,17.398 51.474,16.624 C51.474,15.58 51.888,14.77 52.716,14.212 C53.472,13.672 54.552,13.402 55.92,13.366 L58.008,13.312 L58.008,12.934 C58.008,11.638 57.306,10.99 55.902,10.99 C55.308,10.99 54.822,11.098 54.462,11.314 C54.03,11.566 53.76,11.944 53.652,12.466 L51.762,12.304 C51.96,11.296 52.464,10.54 53.256,10.072 C53.94,9.64 54.876,9.442 56.028,9.442 Z M58.008,14.698 L56.046,14.752 C54.3,14.788 53.436,15.4 53.436,16.552 C53.436,16.912 53.58,17.2 53.886,17.434 C54.174,17.668 54.57,17.794 55.056,17.794 C55.866,17.794 56.55,17.542 57.126,17.056 C57.702,16.57 58.008,15.958 58.008,15.238 L58.008,14.698 Z M69.318,4.24 L70.974,4.24 L64.692,20.8 L63.018,20.8 L69.318,4.24 Z" id="/'əska/" fill-opacity="0.45" fill-rule="nonzero"></path>
                </g>
            </g>
        </g>
    </g>
</svg>