
<svg width="257px" height="27px" viewBox="0 0 257 27" version="1.1" xmlns="http://www.w3.org/2000/svg" xmlns:xlink="http://www.w3.org/1999/xlink">
    <g id="页面1" stroke="none" stroke-width="1" fill="none" fill-rule="evenodd" fill-opacity="0.45">
        <g id="桌面端HD" transform="translate(-205.000000, -628.000000)" fill="#FFFFFF" fill-rule="nonzero">
            <g id="编组-4" transform="translate(205.000000, 367.000000)">
                <path d="M1.188,270 L1.188,261.6 L2.076,261.6 L7.368,268.332 L7.368,261.6 L8.292,261.6 L8.292,270 L7.536,270 L2.112,263.112 L2.112,270 L1.188,270 Z M9.948,270 L13.776,261.54 L14.664,261.54 L18.492,270 L17.472,270 L16.488,267.78 L11.916,267.78 L10.92,270 L9.948,270 Z M12.288,266.928 L16.116,266.928 L14.208,262.644 L12.288,266.928 Z M20.148,270 L20.148,261.6 L21.108,261.6 L24.168,266.184 L27.228,261.6 L28.188,261.6 L28.188,270 L27.24,270 L27.24,263.196 L24.18,267.696 L24.132,267.696 L21.072,263.208 L21.072,270 L20.148,270 Z M30.564,270 L30.564,261.6 L36.636,261.6 L36.636,262.464 L31.512,262.464 L31.512,265.332 L36.096,265.332 L36.096,266.196 L31.512,266.196 L31.512,269.136 L36.696,269.136 L36.696,270 L30.564,270 Z M46.104,270.144 C43.548,270.144 41.832,268.14 41.832,265.824 L41.832,265.8 C41.832,263.484 43.572,261.456 46.128,261.456 C48.684,261.456 50.4,263.46 50.4,265.776 C50.412,265.788 50.412,265.788 50.4,265.8 C50.4,268.116 48.66,270.144 46.104,270.144 Z M46.128,269.268 C48.048,269.268 49.416,267.732 49.416,265.824 L49.416,265.8 C49.416,263.892 48.024,262.332 46.104,262.332 C44.184,262.332 42.816,263.868 42.816,265.776 L42.816,265.8 C42.816,267.708 44.208,269.268 46.128,269.268 Z M52.404,270 L52.404,261.6 L58.44,261.6 L58.44,262.476 L53.352,262.476 L53.352,265.476 L57.9,265.476 L57.9,266.34 L53.352,266.34 L53.352,270 L52.404,270 Z M67.236,270.132 C65.16,270.132 63.744,268.86 63.744,266.484 L63.744,261.6 L64.692,261.6 L64.692,266.424 C64.692,268.236 65.652,269.256 67.26,269.256 C68.808,269.256 69.792,268.32 69.792,266.484 L69.792,261.6 L70.74,261.6 L70.74,266.412 C70.74,268.86 69.336,270.132 67.236,270.132 Z M75.864,270.12 C74.532,270.12 73.44,269.676 72.432,268.776 L73.02,268.08 C73.896,268.872 74.736,269.268 75.9,269.268 C77.028,269.268 77.772,268.668 77.772,267.84 L77.772,267.816 C77.772,267.036 77.352,266.592 75.588,266.22 C73.656,265.8 72.768,265.176 72.768,263.796 L72.768,263.772 C72.768,262.452 73.932,261.48 75.528,261.48 C76.752,261.48 77.628,261.828 78.48,262.512 L77.928,263.244 C77.148,262.608 76.368,262.332 75.504,262.332 C74.412,262.332 73.716,262.932 73.716,263.688 L73.716,263.712 C73.716,264.504 74.148,264.948 75.996,265.344 C77.868,265.752 78.732,266.436 78.732,267.72 L78.732,267.744 C78.732,269.184 77.532,270.12 75.864,270.12 Z M84.504,270.144 C82.08,270.144 80.292,268.236 80.292,265.824 L80.292,265.8 C80.292,263.424 82.068,261.456 84.54,261.456 C86.064,261.456 86.976,261.996 87.816,262.788 L87.168,263.484 C86.46,262.812 85.668,262.332 84.528,262.332 C82.668,262.332 81.276,263.844 81.276,265.776 L81.276,265.8 C81.276,267.744 82.68,269.268 84.528,269.268 C85.68,269.268 86.436,268.824 87.24,268.056 L87.864,268.668 C86.988,269.556 86.028,270.144 84.504,270.144 Z M88.8,270 L92.628,261.54 L93.516,261.54 L97.344,270 L96.324,270 L95.34,267.78 L90.768,267.78 L89.772,270 L88.8,270 Z M91.14,266.928 L94.968,266.928 L93.06,262.644 L91.14,266.928 Z M102.6,270 L102.6,261.6 L108.636,261.6 L108.636,262.476 L103.548,262.476 L103.548,265.476 L108.096,265.476 L108.096,266.34 L103.548,266.34 L103.548,270 L102.6,270 Z M114.372,270.144 C111.816,270.144 110.1,268.14 110.1,265.824 L110.1,265.8 C110.1,263.484 111.84,261.456 114.396,261.456 C116.952,261.456 118.668,263.46 118.668,265.776 C118.68,265.788 118.68,265.788 118.668,265.8 C118.668,268.116 116.928,270.144 114.372,270.144 Z M114.396,269.268 C116.316,269.268 117.684,267.732 117.684,265.824 L117.684,265.8 C117.684,263.892 116.292,262.332 114.372,262.332 C112.452,262.332 111.084,263.868 111.084,265.776 L111.084,265.8 C111.084,267.708 112.476,269.268 114.396,269.268 Z M120.672,270 L120.672,261.6 L124.284,261.6 C125.316,261.6 126.144,261.912 126.672,262.44 C127.08,262.848 127.32,263.436 127.32,264.096 L127.32,264.12 C127.32,265.512 126.36,266.328 125.04,266.568 L127.62,270 L126.456,270 L124.02,266.736 L121.62,266.736 L121.62,270 L120.672,270 Z M121.62,265.884 L124.2,265.884 C125.46,265.884 126.36,265.236 126.36,264.156 L126.36,264.132 C126.36,263.1 125.568,262.476 124.212,262.476 L121.62,262.476 L121.62,265.884 Z M136.308,270.132 C134.232,270.132 132.816,268.86 132.816,266.484 L132.816,261.6 L133.764,261.6 L133.764,266.424 C133.764,268.236 134.724,269.256 136.332,269.256 C137.88,269.256 138.864,268.32 138.864,266.484 L138.864,261.6 L139.812,261.6 L139.812,266.412 C139.812,268.86 138.408,270.132 136.308,270.132 Z M142.056,270 L142.056,261.6 L142.944,261.6 L148.236,268.332 L148.236,261.6 L149.16,261.6 L149.16,270 L148.404,270 L142.98,263.112 L142.98,270 L142.056,270 Z M151.536,270 L151.536,261.6 L154.452,261.6 C157.092,261.6 158.916,263.412 158.916,265.776 L158.916,265.8 C158.916,268.164 157.092,270 154.452,270 L151.536,270 Z M152.484,269.124 L154.452,269.124 C156.576,269.124 157.932,267.684 157.932,265.824 L157.932,265.8 C157.932,263.94 156.576,262.476 154.452,262.476 L152.484,262.476 L152.484,269.124 Z M160.92,270 L160.92,261.6 L166.992,261.6 L166.992,262.464 L161.868,262.464 L161.868,265.332 L166.452,265.332 L166.452,266.196 L161.868,266.196 L161.868,269.136 L167.052,269.136 L167.052,270 L160.92,270 Z M168.96,270 L168.96,261.6 L172.572,261.6 C173.604,261.6 174.432,261.912 174.96,262.44 C175.368,262.848 175.608,263.436 175.608,264.096 L175.608,264.12 C175.608,265.512 174.648,266.328 173.328,266.568 L175.908,270 L174.744,270 L172.308,266.736 L169.908,266.736 L169.908,270 L168.96,270 Z M169.908,265.884 L172.488,265.884 C173.748,265.884 174.648,265.236 174.648,264.156 L174.648,264.132 C174.648,263.1 173.856,262.476 172.5,262.476 L169.908,262.476 L169.908,265.884 Z M181.536,270.144 C178.896,270.144 177.264,268.224 177.264,265.824 L177.264,265.8 C177.264,263.496 178.956,261.456 181.476,261.456 C182.892,261.456 183.768,261.864 184.608,262.572 L183.996,263.292 C183.348,262.728 182.628,262.332 181.44,262.332 C179.58,262.332 178.248,263.904 178.248,265.776 L178.248,265.8 C178.248,267.804 179.532,269.292 181.572,269.292 C182.532,269.292 183.42,268.92 183.996,268.452 L183.996,266.364 L181.44,266.364 L181.44,265.512 L184.908,265.512 L184.908,268.86 C184.128,269.556 182.952,270.144 181.536,270.144 Z M187.044,270 L187.044,261.6 L190.656,261.6 C191.688,261.6 192.516,261.912 193.044,262.44 C193.452,262.848 193.692,263.436 193.692,264.096 L193.692,264.12 C193.692,265.512 192.732,266.328 191.412,266.568 L193.992,270 L192.828,270 L190.392,266.736 L187.992,266.736 L187.992,270 L187.044,270 Z M187.992,265.884 L190.572,265.884 C191.832,265.884 192.732,265.236 192.732,264.156 L192.732,264.132 C192.732,263.1 191.94,262.476 190.584,262.476 L187.992,262.476 L187.992,265.884 Z M195,270 L198.828,261.54 L199.716,261.54 L203.544,270 L202.524,270 L201.54,267.78 L196.968,267.78 L195.972,270 L195,270 Z M197.34,266.928 L201.168,266.928 L199.26,262.644 L197.34,266.928 Z M205.2,270 L205.2,261.6 L208.116,261.6 C210.756,261.6 212.58,263.412 212.58,265.776 L212.58,265.8 C212.58,268.164 210.756,270 208.116,270 L205.2,270 Z M206.148,269.124 L208.116,269.124 C210.24,269.124 211.596,267.684 211.596,265.824 L211.596,265.8 C211.596,263.94 210.24,262.476 208.116,262.476 L206.148,262.476 L206.148,269.124 Z M217.944,270.132 C215.868,270.132 214.452,268.86 214.452,266.484 L214.452,261.6 L215.4,261.6 L215.4,266.424 C215.4,268.236 216.36,269.256 217.968,269.256 C219.516,269.256 220.5,268.32 220.5,266.484 L220.5,261.6 L221.448,261.6 L221.448,266.412 C221.448,268.86 220.044,270.132 217.944,270.132 Z M222.972,270 L226.8,261.54 L227.688,261.54 L231.516,270 L230.496,270 L229.512,267.78 L224.94,267.78 L223.944,270 L222.972,270 Z M225.312,266.928 L229.14,266.928 L227.232,262.644 L225.312,266.928 Z M235.392,270 L235.392,262.476 L232.572,262.476 L232.572,261.6 L239.172,261.6 L239.172,262.476 L236.352,262.476 L236.352,270 L235.392,270 Z M240.948,270 L240.948,261.6 L247.02,261.6 L247.02,262.464 L241.896,262.464 L241.896,265.332 L246.48,265.332 L246.48,266.196 L241.896,266.196 L241.896,269.136 L247.08,269.136 L247.08,270 L240.948,270 Z M248.988,270 L248.988,261.6 L251.904,261.6 C254.544,261.6 256.368,263.412 256.368,265.776 L256.368,265.8 C256.368,268.164 254.544,270 251.904,270 L248.988,270 Z M249.936,269.124 L251.904,269.124 C254.028,269.124 255.384,267.684 255.384,265.824 L255.384,265.8 C255.384,263.94 254.028,262.476 251.904,262.476 L249.936,262.476 L249.936,269.124 Z M4.068,287.12 C2.736,287.12 1.644,286.676 0.636,285.776 L1.224,285.08 C2.1,285.872 2.94,286.268 4.104,286.268 C5.232,286.268 5.976,285.668 5.976,284.84 L5.976,284.816 C5.976,284.036 5.556,283.592 3.792,283.22 C1.86,282.8 0.972,282.176 0.972,280.796 L0.972,280.772 C0.972,279.452 2.136,278.48 3.732,278.48 C4.956,278.48 5.832,278.828 6.684,279.512 L6.132,280.244 C5.352,279.608 4.572,279.332 3.708,279.332 C2.616,279.332 1.92,279.932 1.92,280.688 L1.92,280.712 C1.92,281.504 2.352,281.948 4.2,282.344 C6.072,282.752 6.936,283.436 6.936,284.72 L6.936,284.744 C6.936,286.184 5.736,287.12 4.068,287.12 Z M11.088,287 L11.088,279.476 L8.268,279.476 L8.268,278.6 L14.868,278.6 L14.868,279.476 L12.048,279.476 L12.048,287 L11.088,287 Z M20.004,287.132 C17.928,287.132 16.512,285.86 16.512,283.484 L16.512,278.6 L17.46,278.6 L17.46,283.424 C17.46,285.236 18.42,286.256 20.028,286.256 C21.576,286.256 22.56,285.32 22.56,283.484 L22.56,278.6 L23.508,278.6 L23.508,283.412 C23.508,285.86 22.104,287.132 20.004,287.132 Z M25.752,287 L25.752,278.6 L28.668,278.6 C31.308,278.6 33.132,280.412 33.132,282.776 L33.132,282.8 C33.132,285.164 31.308,287 28.668,287 L25.752,287 Z M26.7,286.124 L28.668,286.124 C30.792,286.124 32.148,284.684 32.148,282.824 L32.148,282.8 C32.148,280.94 30.792,279.476 28.668,279.476 L26.7,279.476 L26.7,286.124 Z M35.136,287 L35.136,278.6 L41.208,278.6 L41.208,279.464 L36.084,279.464 L36.084,282.332 L40.668,282.332 L40.668,283.196 L36.084,283.196 L36.084,286.136 L41.268,286.136 L41.268,287 L35.136,287 Z M43.176,287 L43.176,278.6 L44.064,278.6 L49.356,285.332 L49.356,278.6 L50.28,278.6 L50.28,287 L49.524,287 L44.1,280.112 L44.1,287 L43.176,287 Z M54.876,287 L54.876,279.476 L52.056,279.476 L52.056,278.6 L58.656,278.6 L58.656,279.476 L55.836,279.476 L55.836,287 L54.876,287 Z M67.872,287.144 C65.448,287.144 63.66,285.236 63.66,282.824 L63.66,282.8 C63.66,280.424 65.436,278.456 67.908,278.456 C69.432,278.456 70.344,278.996 71.184,279.788 L70.536,280.484 C69.828,279.812 69.036,279.332 67.896,279.332 C66.036,279.332 64.644,280.844 64.644,282.776 L64.644,282.8 C64.644,284.744 66.048,286.268 67.896,286.268 C69.048,286.268 69.804,285.824 70.608,285.056 L71.232,285.668 C70.356,286.556 69.396,287.144 67.872,287.144 Z M76.788,287.144 C74.232,287.144 72.516,285.14 72.516,282.824 L72.516,282.8 C72.516,280.484 74.256,278.456 76.812,278.456 C79.368,278.456 81.084,280.46 81.084,282.776 C81.096,282.788 81.096,282.788 81.084,282.8 C81.084,285.116 79.344,287.144 76.788,287.144 Z M76.812,286.268 C78.732,286.268 80.1,284.732 80.1,282.824 L80.1,282.8 C80.1,280.892 78.708,279.332 76.788,279.332 C74.868,279.332 73.5,280.868 73.5,282.776 L73.5,282.8 C73.5,284.708 74.892,286.268 76.812,286.268 Z M86.448,287.132 C84.372,287.132 82.956,285.86 82.956,283.484 L82.956,278.6 L83.904,278.6 L83.904,283.424 C83.904,285.236 84.864,286.256 86.472,286.256 C88.02,286.256 89.004,285.32 89.004,283.484 L89.004,278.6 L89.952,278.6 L89.952,283.412 C89.952,285.86 88.548,287.132 86.448,287.132 Z M92.196,287 L92.196,278.6 L95.808,278.6 C96.84,278.6 97.668,278.912 98.196,279.44 C98.604,279.848 98.844,280.436 98.844,281.096 L98.844,281.12 C98.844,282.512 97.884,283.328 96.564,283.568 L99.144,287 L97.98,287 L95.544,283.736 L93.144,283.736 L93.144,287 L92.196,287 Z M93.144,282.884 L95.724,282.884 C96.984,282.884 97.884,282.236 97.884,281.156 L97.884,281.132 C97.884,280.1 97.092,279.476 95.736,279.476 L93.144,279.476 L93.144,282.884 Z M100.956,287 L100.956,278.6 L101.904,278.6 L101.904,287 L100.956,287 Z M104.364,287 L104.364,278.6 L110.436,278.6 L110.436,279.464 L105.312,279.464 L105.312,282.332 L109.896,282.332 L109.896,283.196 L105.312,283.196 L105.312,286.136 L110.496,286.136 L110.496,287 L104.364,287 Z M112.404,287 L112.404,278.6 L116.016,278.6 C117.048,278.6 117.876,278.912 118.404,279.44 C118.812,279.848 119.052,280.436 119.052,281.096 L119.052,281.12 C119.052,282.512 118.092,283.328 116.772,283.568 L119.352,287 L118.188,287 L115.752,283.736 L113.352,283.736 L113.352,287 L112.404,287 Z M113.352,282.884 L115.932,282.884 C117.192,282.884 118.092,282.236 118.092,281.156 L118.092,281.132 C118.092,280.1 117.3,279.476 115.944,279.476 L113.352,279.476 L113.352,282.884 Z M123.96,287 L127.788,278.54 L128.676,278.54 L132.504,287 L131.484,287 L130.5,284.78 L125.928,284.78 L124.932,287 L123.96,287 Z M126.3,283.928 L130.128,283.928 L128.22,279.644 L126.3,283.928 Z M134.16,287 L134.16,278.6 L135.048,278.6 L140.34,285.332 L140.34,278.6 L141.264,278.6 L141.264,287 L140.508,287 L135.084,280.112 L135.084,287 L134.16,287 Z M142.92,287 L146.748,278.54 L147.636,278.54 L151.464,287 L150.444,287 L149.46,284.78 L144.888,284.78 L143.892,287 L142.92,287 Z M145.26,283.928 L149.088,283.928 L147.18,279.644 L145.26,283.928 Z M153.12,287 L153.12,278.6 L154.068,278.6 L154.068,286.124 L158.796,286.124 L158.796,287 L153.12,287 Z M163.176,287 L163.176,283.676 L159.684,278.6 L160.836,278.6 L163.668,282.8 L166.524,278.6 L167.628,278.6 L164.136,283.664 L164.136,287 L163.176,287 Z M168.756,287 L168.756,286.364 L174.192,279.452 L168.936,279.452 L168.936,278.6 L175.488,278.6 L175.488,279.236 L170.04,286.148 L175.488,286.148 L175.488,287 L168.756,287 Z M177.456,287 L177.456,278.6 L183.528,278.6 L183.528,279.464 L178.404,279.464 L178.404,282.332 L182.988,282.332 L182.988,283.196 L178.404,283.196 L178.404,286.136 L183.588,286.136 L183.588,287 L177.456,287 Z" id="NAMEOFUSCAFORUNDERGRADUATEDSTUDENTCOURIERANALYZE"></path>
            </g>
        </g>
    </g>
</svg>