
<svg width="183px" height="26px" viewBox="0 0 183 26" version="1.1" xmlns="http://www.w3.org/2000/svg" xmlns:xlink="http://www.w3.org/1999/xlink">
    <g id="页面1" stroke="none" stroke-width="1" fill="none" fill-rule="evenodd" fill-opacity="0.64" stroke-opacity="0.64">
        <g id="画板" transform="translate(-567.000000, -213.000000)" fill="#000000" stroke="#000000">
            <g id="Group-84-Copy">
                <path d="M573.05,226.388 L587.722,226.388 L587.722,232.016 L573.05,232.016 Z M586.854,227.2 L573.89,227.2 L573.89,231.176 L586.854,231.176 Z M570.866,219.584 L571.314,218.884 C572.490006,219.686671 573.581995,220.517329 574.59,221.376 C576.102008,219.863992 577.287329,218.10001 578.146,216.084 L570.166,216.084 L570.166,215.272 L579.07,215.272 L579.07,215.972 C577.091323,220.918691 573.358027,224.474656 567.87,226.64 L567.562,225.856 C570.082013,224.885328 572.228658,223.588008 574.002,221.964 C573.852666,221.851999 573.619335,221.674668 573.302,221.432 C572.219328,220.591996 571.407336,219.976002 570.866,219.584 Z M580.806,214.404 L581.562,214.068 C582.178003,215.505341 582.77533,216.662662 583.354,217.54 C584.903341,216.606662 586.499325,215.47734 588.142,214.152 L588.674,214.768 C587.068659,216.074673 585.435342,217.231995 583.774,218.24 C584.483337,219.248005 585.201996,220.115996 585.93,220.844 C586.956672,220.227997 588.319325,219.25734 590.018,217.932 C590.223334,217.763999 590.381999,217.642667 590.494,217.568 L590.97,218.212 C589.383325,219.518673 587.908673,220.582663 586.546,221.404 C588.226008,222.990675 590.41932,224.334661 593.126,225.436 L592.818,226.22 C587.143305,223.979989 583.139345,220.041362 580.806,214.404 Z M569.242,237.084 L582.29,237.084 C583.466006,235.777327 584.408663,234.554672 585.118,233.416 L585.818,233.836 C585.201997,234.844005 584.399338,235.926661 583.41,237.084 L591.558,237.084 L591.558,237.896 L569.242,237.896 Z M575.682,222.356 L585.23,222.356 L585.23,223.168 L575.682,223.168 Z M574.954,233.976 L575.514,233.36 C576.503338,234.237338 577.427329,235.179995 578.286,236.188 L577.698,236.72 C576.913996,235.842662 575.999339,234.928005 574.954,233.976 Z M601.386,219.276 L615.834,219.276 L616.002,215.608 L600.574,215.608 L600.574,214.768 L616.87,214.768 L616.45,223.812 L621.49,223.812 L621.49,224.624 L609.898,224.624 L609.898,224.904 C610.439336,226.826676 611.437993,228.665325 612.894,230.42 C615.320679,228.795992 617.299326,227.302673 618.83,225.94 L619.362,226.584 C617.663325,228.058674 615.694011,229.542659 613.454,231.036 C615.600677,233.369345 618.232651,235.151994 621.35,236.384 L621.042,237.112 C615.647306,234.927989 611.932677,231.577356 609.898,227.06 L609.898,235.74 C609.935334,237.494675 609.104675,238.362667 607.406,238.344 C606.677996,238.344 605.922004,238.241334 605.138,238.036 L605.334,237.252 C606.08067,237.438668 606.761997,237.532 607.378,237.532 C608.572673,237.588 609.132667,236.990673 609.058,235.74 L609.058,224.624 L597.214,224.624 L597.214,223.812 L615.61,223.812 L615.778,220.088 L601.386,220.088 Z M597.634,236.104 C600.97535,234.19999 604.167318,232.137344 607.21,229.916 L607.658,230.588 C604.503318,232.902678 601.28335,234.974658 597.998,236.804 Z M599.706,226.864 L600.182,226.192 C601.600674,227.144005 603.149992,228.28266 604.83,229.608 L604.326,230.28 C602.94466,229.159994 601.404675,228.021339 599.706,226.864 Z M628.014,223.392 C629.731342,221.394657 631.560657,218.930681 633.502,216 L627.034,216 L627.034,215.188 L640.614,215.188 L640.614,216 L634.482,216 C632.727325,218.669347 630.935342,221.123989 629.106,223.364 L637.842,222.664 C637.057996,221.543994 636.199338,220.414672 635.266,219.276 L635.938,218.772 C637.692675,220.974678 639.185994,222.971991 640.418,224.764 L639.718,225.24 C639.624666,225.109333 639.475334,224.894668 639.27,224.596 C639.157999,224.427999 638.868669,224.02667 638.402,223.392 L628.35,224.232 C628.256666,224.250667 628.060668,224.325333 627.762,224.456 C627.724666,224.474667 627.696667,224.484 627.678,224.484 L627.286,223.756 C627.323334,223.737333 627.379333,223.709334 627.454,223.672 C627.771335,223.541333 627.958,223.448 628.014,223.392 Z M626.81,236.412 L633.474,235.04 L633.474,229.72 L627.986,229.72 L627.986,228.908 L633.474,228.908 L633.474,225.296 L634.286,225.296 L634.286,228.908 L639.522,228.908 L639.522,229.72 L634.286,229.72 L634.286,234.9 L640.278,233.64 L640.446,234.452 L626.978,237.252 Z M648.398,213.62 L649.21,213.62 L649.21,235.376 C649.228667,237.33601 648.23001,238.316 646.214,238.316 C645.485996,238.316 644.562006,238.194668 643.442,237.952 L643.61,237.168 C644.599338,237.373334 645.46733,237.485333 646.214,237.504 C647.726008,237.56 648.454,236.850674 648.398,235.376 Z M642.994,216.784 L643.806,216.784 L643.806,232.436 L642.994,232.436 Z M658.518,215.218 L659.702,215.218 L659.702,228.978 C659.702,230.386007 660.053996,231.687327 660.758,232.882 C661.462004,234.076673 662.411327,235.025996 663.606,235.73 C664.800673,236.434004 666.101993,236.786 667.51,236.786 C668.918007,236.786 670.219327,236.434004 671.414,235.73 C672.608673,235.025996 673.557996,234.076673 674.262,232.882 C674.966004,231.687327 675.318,230.386007 675.318,228.978 L675.318,215.218 L676.502,215.218 L676.502,228.978 C676.502,230.599341 676.096671,232.097993 675.286,233.474 C674.475329,234.850007 673.382007,235.943329 672.006,236.754 C670.629993,237.564671 669.131341,237.97 667.51,237.97 C665.888659,237.97 664.390007,237.564671 663.014,236.754 C661.637993,235.943329 660.544671,234.850007 659.734,233.474 C658.923329,232.097993 658.518,230.599341 658.518,228.978 Z M691.67,226.834 C689.856658,226.471332 688.379339,226.071336 687.238,225.634 C686.096661,225.196664 685.20067,224.599337 684.55,223.842 C683.89933,223.084663 683.574,222.108673 683.574,220.914 C683.574,219.67666 683.89933,218.588671 684.55,217.65 C685.20067,216.711329 686.117994,215.986003 687.302,215.474 C688.486006,214.961997 689.856659,214.706 691.414,214.706 C692.907341,214.706 694.277994,215.020664 695.526,215.65 C696.774006,216.279336 697.760663,217.159328 698.486,218.29 C699.211337,219.420672 699.574,220.711326 699.574,222.162 L698.39,222.162 C698.39,220.903327 698.08067,219.794005 697.462,218.834 C696.84333,217.873995 696.000672,217.132669 694.934,216.61 C693.867328,216.087331 692.68334,215.826 691.382,215.826 C690.229994,215.826 689.152672,216.007332 688.15,216.37 C687.147328,216.732668 686.331336,217.28733 685.702,218.034 C685.072664,218.78067 684.758,219.719328 684.758,220.85 C684.758,221.874005 685.056664,222.689997 685.654,223.298 C686.251336,223.906003 687.029995,224.369998 687.99,224.69 C688.950005,225.010002 690.293991,225.351332 692.022,225.714 C693.771342,226.076668 695.131328,226.423332 696.102,226.754 C697.072672,227.084668 697.893997,227.633996 698.566,228.402 C699.238003,229.170004 699.574,230.247326 699.574,231.634 C699.574,233.020674 699.206004,234.188662 698.47,235.138 C697.733996,236.087338 696.758006,236.796664 695.542,237.266 C694.325994,237.735336 693.00334,237.97 691.574,237.97 C689.803324,237.97 688.246007,237.639337 686.902,236.978 C685.557993,236.316663 684.52867,235.383339 683.814,234.178 C683.09933,232.972661 682.742,231.591341 682.742,230.034 L683.926,230.034 C683.926,231.39934 684.229997,232.593995 684.838,233.618 C685.446003,234.642005 686.325994,235.436664 687.478,236.002 C688.630006,236.567336 689.995325,236.85 691.574,236.85 C693.536676,236.85 695.163327,236.380671 696.454,235.442 C697.744673,234.503329 698.39,233.223341 698.39,231.602 C698.39,230.492661 698.112669,229.639336 697.558,229.042 C697.003331,228.444664 696.304671,228.012668 695.462,227.746 C694.619329,227.479332 693.355342,227.175335 691.67,226.834 Z M707.222,228.978 C707.222,230.386007 707.57933,231.687327 708.294,232.882 C709.00867,234.076673 709.968661,235.025996 711.174,235.73 C712.379339,236.434004 713.685993,236.786 715.094,236.786 C716.544674,236.786 717.856661,236.498003 719.03,235.922 C720.203339,235.345997 721.125997,234.546005 721.798,233.522 C722.470003,232.497995 722.816667,231.346006 722.838,230.066 L723.99,230.066 C723.99,231.538007 723.600671,232.876661 722.822,234.082 C722.043329,235.287339 720.976673,236.236663 719.622,236.93 C718.267327,237.623337 716.758008,237.97 715.094,237.97 C713.472659,237.97 711.968674,237.564671 710.582,236.754 C709.195326,235.943329 708.096671,234.850007 707.286,233.474 C706.475329,232.097993 706.07,230.599341 706.07,228.978 L706.07,223.73 C706.07,222.108659 706.469996,220.610007 707.27,219.234 C708.070004,217.857993 709.157993,216.764671 710.534,215.954 C711.910007,215.143329 713.408659,214.738 715.03,214.738 C716.672675,214.738 718.171327,215.084663 719.526,215.778 C720.880673,216.471337 721.952663,217.420661 722.742,218.626 C723.531337,219.831339 723.926,221.169993 723.926,222.642 L722.774,222.642 C722.752667,221.361994 722.40067,220.210005 721.718,219.186 C721.03533,218.161995 720.112672,217.362003 718.95,216.786 C717.787328,216.209997 716.480674,215.922 715.03,215.922 C713.621993,215.922 712.320673,216.273996 711.126,216.978 C709.931327,217.682004 708.982004,218.631327 708.278,219.826 C707.573996,221.020673 707.222,222.321993 707.222,223.73 Z M749.046,237.49 L728.054,237.49 L738.55,214.738 Z M729.91,236.306 L747.19,236.306 L738.55,217.554 Z" id="形状结合"></path>
            </g>
        </g>
    </g>
</svg>