
<svg width="90px" height="24px" viewBox="0 0 90 24" version="1.1" xmlns="http://www.w3.org/2000/svg" xmlns:xlink="http://www.w3.org/1999/xlink">
    <g id="页面1" stroke="none" stroke-width="1" fill="none" fill-rule="evenodd" fill-opacity="0.87">
        <g id="画板" transform="translate(-159.000000, -20.000000)" fill="#FFFFFF">
            <g id="Group-84-Copy">
                <g id="top-bar">
                    <path d="M238.602,20 L248.602,43 L228.602,43 L238.602,20 Z M167.992,43.48 C166.370659,43.48 164.872007,43.0746707 163.496,42.264 C162.119993,41.4533293 161.026671,40.3600069 160.216,38.984 C159.405329,37.6079931 159,36.1093414 159,34.488 L159,20.728 L176.984,20.728 L176.984,34.488 C176.984,36.1093414 176.578671,37.6079931 175.768,38.984 C174.957329,40.3600069 173.864007,41.4533293 172.488,42.264 C171.111993,43.0746707 169.613341,43.48 167.992,43.48 Z M191.832,43.576 C188.738651,43.576 186.354675,42.8453406 184.68,41.384 C183.005325,39.9226594 182.178667,37.7306813 182.2,34.808 L187.416,34.808 C187.394667,36.0240061 187.75733,36.9519968 188.504,37.592 C189.25067,38.2320032 190.295993,38.552 191.64,38.552 C192.749339,38.552 193.623997,38.3706685 194.264,38.008 C194.904003,37.6453315 195.224,37.0906704 195.224,36.344 C195.224,35.7253302 194.89867,35.2773347 194.248,35 C193.59733,34.7226653 192.952003,34.5253339 192.312,34.408 C191.671997,34.2906661 191.277334,34.2213334 191.128,34.2 C189.485325,33.8799984 188.066673,33.490669 186.872,33.032 C185.677327,32.573331 184.674671,31.8746714 183.864,30.936 C183.053329,29.9973286 182.648,28.7600077 182.648,27.224 C182.648,25.6879923 183.053329,24.3813387 183.864,23.304 C184.674671,22.2266613 185.757327,21.421336 187.112,20.888 C188.466673,20.354664 189.943992,20.088 191.544,20.088 C193.485343,20.088 195.165326,20.450663 196.584,21.176 C198.002674,21.901337 199.117329,22.9999926 199.928,24.472 C200.333335,25.1760035 200.578666,25.8533301 200.664,26.504 C200.749334,27.1546699 200.792,27.7893302 200.792,28.408 L195.576,28.408 C195.576,27.2559942 195.26667,26.4080027 194.648,25.864 C194.02933,25.3199973 193.06934,25.048 191.768,25.048 C190.722661,25.048 189.912003,25.2293315 189.336,25.592 C188.759997,25.9546685 188.472,26.4453302 188.472,27.064 C188.472,27.7466701 188.855996,28.2479984 189.624,28.568 C190.392004,28.8880016 191.362661,29.1759987 192.536,29.432 C194.45601,29.8160019 195.954661,30.1839982 197.032,30.536 C198.109339,30.8880018 199.042663,31.5119955 199.832,32.408 C200.621337,33.3040045 201.016,34.5626586 201.016,36.184 C201.016,37.7200077 200.589338,39.0426611 199.736,40.152 C198.882662,41.2613389 197.75734,42.1093304 196.36,42.696 C194.96266,43.2826696 193.453341,43.576 191.832,43.576 Z M224.536,34.584 C224.557333,37.3786806 223.757341,39.5599922 222.136,41.128 C220.514659,42.6960078 218.285348,43.48 215.448,43.48 C213.762658,43.48 212.210674,43.0960038 210.792,42.328 C209.373326,41.5599962 208.248004,40.472007 207.416,39.064 C206.583996,37.655993 206.168,36.0346758 206.168,34.2 L206.168,29.528 C206.168,27.7146576 206.567996,26.104007 207.368,24.696 C208.168004,23.287993 209.26666,22.1946706 210.664,21.416 C212.06134,20.6373294 213.623991,20.248 215.352,20.248 C218.189348,20.248 220.413325,21.0213256 222.024,22.568 C223.634675,24.1146744 224.450667,26.2959859 224.472,29.112 L218.712,29.112 C218.690667,28.0239946 218.397336,27.1813363 217.832,26.584 C217.266664,25.9866637 216.440005,25.688 215.352,25.688 C214.370662,25.688 213.560003,25.9973302 212.92,26.616 C212.279997,27.2346698 211.96,28.1093277 211.96,29.24 L211.96,34.456 C211.96,35.5866723 212.295997,36.4666635 212.968,37.096 C213.640003,37.7253365 214.466662,38.04 215.448,38.04 C217.688011,38.04 218.808,36.8880115 218.808,34.584 L224.536,34.584 Z" id="形状结合"></path>
                </g>
            </g>
        </g>
    </g>
</svg>